<svg width="255" height="255" viewBox="0 0 255 255" fill="none" xmlns="http://www.w3.org/2000/svg">
<path d="M158.961 130.931C163.352 131.183 168.009 131.593 172.46 132.302C185.825 108.862 209.663 101.291 209.663 101.291L254.583 0.615963C254.583 0.615963 236.541 -1.19884 232.063 9.62375C225.923 24.5992 199.178 90.0779 199.178 90.0779C199.178 90.0779 172.599 100.927 158.961 130.931Z" fill="#FF0000"/>
<path d="M23.97 96.9861C23.97 96.9861 30.1827 116.366 43.7143 116.618C45.635 116.658 65.7436 116.618 74.9898 116.565C72.3429 111.785 70.0045 106.84 67.9889 101.762L23.97 96.9861Z" fill="#FF0000"/>
<path d="M84.9779 156.517C85.7396 156.232 95.0918 152.543 101.152 150.019C97.2325 146.392 93.5344 142.533 90.0779 138.462L58.9481 146.787C58.9481 146.787 72.5723 161.167 84.9779 156.517Z" fill="#FF0000"/>
<path d="M38.5745 123.976C38.5745 123.976 48.5824 141.336 62.8624 138.74C63.4784 138.627 77.765 136.031 86.7463 134.349C83.4465 130.122 80.4074 125.698 77.6458 121.102L38.5745 123.976Z" fill="#FF0000"/>
<path d="M15.8961 66.1013C15.8961 66.1013 17.0618 87.8127 32.6069 90.4422C33.5275 90.5945 54.0534 94.4162 66.1477 96.7675C64.4653 91.5748 62.8757 86.0244 61.5908 80.4873L15.8961 66.1013Z" fill="#FF0000"/>
<path d="M25.5596 59.9879C26.4405 60.3787 48.7944 70.1813 60.6635 75.586C59.6567 69.772 59.0394 63.8972 58.8156 58.0009L15.8365 31.0901C15.8365 31.0901 11.6571 53.8414 25.5596 59.9879Z" fill="#FF0000"/>
<path d="M138.852 121.274C140.431 116.494 142.377 111.844 144.674 107.365L130.971 85.2495C130.971 85.2495 123.221 101.907 130.235 110.763C130.56 111.18 136.733 118.631 138.852 121.274Z" fill="#FF0000"/>
<path d="M147.138 102.821C149.779 98.2286 152.791 93.8602 156.146 89.76L143.873 59.9084C143.873 59.9084 132.66 75.1422 138.806 86.2364C139.164 86.8855 145.489 99.5229 147.138 102.821Z" fill="#FF0000"/>
<path d="M159.233 86.1503C162.852 82.1005 166.797 78.3545 171.029 74.9501L163.876 36.0775C163.876 36.0775 148.45 47.6883 152.172 61.4451C152.232 61.6835 158.133 82.3087 159.233 86.1503Z" fill="#FF0000"/>
<path d="M175.182 71.7775C179.616 68.57 184.308 65.7344 189.21 63.2996L190.641 16.6247C190.641 16.6247 171.625 24.9834 172.42 38.9852L175.182 71.7775Z" fill="#FF0000"/>
<path d="M224.532 3.75546C224.532 3.75546 202.013 7.44468 200.192 20.0092C199.894 22.036 194.893 54.9078 193.946 61.0742C198.629 59.0489 203.46 57.386 208.398 56.1L224.532 3.75546Z" fill="#FF0000"/>
<path d="M205.848 156.245H205.709C206.063 154.927 206.081 153.541 205.761 152.214C205.442 150.887 204.796 149.661 203.881 148.648C194.899 137.998 163.246 134.031 144.661 135.15C113.591 108.888 110.789 74.354 110.789 74.354L23.4401 0.874298C23.4401 0.874298 14.684 17.4725 24.9172 25.6457C31.4412 30.8517 94.4626 80.0104 98.3108 82.9843C103.431 111.803 118.181 128.758 129.441 139.283C136.256 145.688 139.376 151.98 135.004 157.166C130.825 162.061 120.724 162.101 116.134 162.014C112.086 159.217 108.188 156.208 104.457 153L0.331177 204.113C0.331177 204.113 14.3794 215.518 26.8644 209.57C27.083 209.464 97.463 172.208 115.048 162.935C120.092 166.301 125.376 169.291 130.858 171.883C145.304 172.115 155.365 159.299 150.139 147.052C150.139 147.052 186.978 147.383 194.853 156.855C195.107 157.175 195.293 157.543 195.402 157.936C195.51 158.33 195.537 158.742 195.482 159.146L182.898 156.61C182.898 156.61 181.408 164.558 189.892 165.439C192.754 165.737 194.171 164.538 195.072 163.121L199.86 163.895C204.424 164.617 205.159 169.009 204.934 170.903C204.543 174.016 201.881 176.864 200.569 177.778C200.315 175.767 199.449 173.882 198.088 172.379C196.726 170.877 194.936 169.83 192.959 169.38C185.673 167.598 155.762 169.777 149.874 174.016C122.215 193.833 120.3 223.459 120.281 223.632C120.281 223.632 127.328 239.74 138.097 248.801C142.706 252.739 148.594 254.859 154.656 254.762C157.485 254.714 160.274 254.092 162.856 252.934C162.856 252.934 140.959 238.508 134.925 218.836C135.481 216.896 143.495 195.443 156.365 186.263C161.584 182.54 200.596 177.798 200.596 177.798L207.179 188.481C207.179 188.481 218.26 181.196 217.512 169.618C217.068 162.935 210.915 157.153 205.848 156.245Z" fill="#FF0000"/>
<path d="M110.643 187.369L64.5779 196.992L32.9778 216.988C32.9778 216.988 48.3506 226.645 61.5312 218.227L93.2638 196.992C93.2638 196.992 95.774 211.133 96.8603 215.306C101.112 231.202 117.075 223.963 117.075 223.963L112.597 206.365C109.736 194.78 110.206 189.031 110.643 187.369Z" fill="#FF0000"/>
<path d="M148.145 204.172C145.431 208.662 143.109 213.378 141.204 218.267C144.452 223.553 148.38 228.389 152.887 232.653C160.312 239.442 168.174 245.582 177.824 245.952C182.308 246.125 189.329 242.058 189.329 242.058L186.488 240.594C160.749 227.135 148.145 204.172 148.145 204.172Z" fill="#FF0000"/>
</svg>
